# xmcd
#
# Track frame offsets: 
#        150
#        4485
#        20044
#        36158
#        52366
#        67100
#        84442
#        102288
#        122570
#        138956
#        152476
#        170893
#        188245
#        200038
#
# Disc length: 2869 seconds
#
# Revision: 0
# Processed by: cddbd v1.5.2PL0 Copyright (c) Steve Scherf et al.
# Submitted via: ExactAudioCopyFreeDBPlugin 1.0
#
DISCID=cd0b330e
DTITLE=Martina McBride - Evolution
DYEAR=1997
DGENRE=Country
TTITLE0=I'm Little But I'm Loud
TTITLE1=Happy Girl
TTITLE2=Be That Way
TTITLE3=A Broken Wing
TTITLE4=Wrong Again
TTITLE5=Keeping My Distance
TTITLE6=Still Holding on
TTITLE7=Whatever You Say
TTITLE8=I Won't Close My Eyes
TTITLE9=I Don't Want to See You Again
TTITLE10=Some Say I'm Running
TTITLE11=Here in My Heart
TTITLE12=One Day You Will
TTITLE13=Valentine
EXTD=
EXTT0=
EXTT1=
EXTT2=
EXTT3=
EXTT4=
EXTT5=
EXTT6=
EXTT7=
EXTT8=
EXTT9=
EXTT10=
EXTT11=
EXTT12=
EXTT13=
PLAYORDER=
